<?xml version="1.0" encoding="utf-8" standalone="no"?>
<!DOCTYPE svg PUBLIC "-//W3C//DTD SVG 1.1//EN"
  "http://www.w3.org/Graphics/SVG/1.1/DTD/svg11.dtd">
<svg xmlns:xlink="http://www.w3.org/1999/xlink" width="1440pt" height="720pt" viewBox="0 0 1440 720" xmlns="http://www.w3.org/2000/svg" version="1.1">
 <metadata>
  <rdf:RDF xmlns:dc="http://purl.org/dc/elements/1.1/" xmlns:cc="http://creativecommons.org/ns#" xmlns:rdf="http://www.w3.org/1999/02/22-rdf-syntax-ns#">
   <cc:Work>
    <dc:type rdf:resource="http://purl.org/dc/dcmitype/StillImage"/>
    <dc:date>2024-12-10T00:18:28.142011</dc:date>
    <dc:format>image/svg+xml</dc:format>
    <dc:creator>
     <cc:Agent>
      <dc:title>Matplotlib v3.9.2, https://matplotlib.org/</dc:title>
     </cc:Agent>
    </dc:creator>
   </cc:Work>
  </rdf:RDF>
 </metadata>
 <defs>
  <style type="text/css">*{stroke-linejoin: round; stroke-linecap: butt}</style>
 </defs>
 <g id="figure_1">
  <g id="patch_1">
   <path d="M 0 720 
L 1440 720 
L 1440 0 
L 0 0 
z
" style="fill: #ffffff"/>
  </g>
  <g id="axes_1">
   <g id="patch_2">
    <path d="M 180 338.4 
L 1296 338.4 
L 1296 86.4 
L 180 86.4 
z
" style="fill: #ffffff"/>
   </g>
   <g id="PathCollection_1">
    <defs>
     <path id="mbe162ef06f" d="M 0 3 
C 0.795609 3 1.55874 2.683901 2.12132 2.12132 
C 2.683901 1.55874 3 0.795609 3 0 
C 3 -0.795609 2.683901 -1.55874 2.12132 -2.12132 
C 1.55874 -2.683901 0.795609 -3 0 -3 
C -0.795609 -3 -1.55874 -2.683901 -2.12132 -2.12132 
C -2.683901 -1.55874 -3 -0.795609 -3 0 
C -3 0.795609 -2.683901 1.55874 -2.12132 2.12132 
C -1.55874 2.683901 -0.795609 3 0 3 
z
" style="stroke: #0000ff"/>
    </defs>
    <g clip-path="url(#p55509bbc6e)">
     <use xlink:href="#mbe162ef06f" x="559.782748" y="97.854545" style="fill: #0000ff; stroke: #0000ff"/>
     <use xlink:href="#mbe162ef06f" x="582.900958" y="97.854545" style="fill: #0000ff; stroke: #0000ff"/>
    </g>
   </g>
   <g id="PathCollection_2">
    <defs>
     <path id="m9bae516ebd" d="M 0 3 
C 0.795609 3 1.55874 2.683901 2.12132 2.12132 
C 2.683901 1.55874 3 0.795609 3 0 
C 3 -0.795609 2.683901 -1.55874 2.12132 -2.12132 
C 1.55874 -2.683901 0.795609 -3 0 -3 
C -0.795609 -3 -1.55874 -2.683901 -2.12132 -2.12132 
C -2.683901 -1.55874 -3 -0.795609 -3 0 
C -3 0.795609 -2.683901 1.55874 -2.12132 2.12132 
C -1.55874 2.683901 -0.795609 3 0 3 
z
" style="stroke: #000000"/>
    </defs>
    <g clip-path="url(#p55509bbc6e)">
     <use xlink:href="#m9bae516ebd" x="559.782748" y="97.854545" style="stroke: #000000"/>
    </g>
   </g>
   <g id="patch_3">
    <path d="M 348.153355 338.4 
L 787.744409 338.4 
L 787.744409 86.4 
L 348.153355 86.4 
z
" clip-path="url(#p55509bbc6e)" style="fill: #ff0000; opacity: 0.4; stroke: #ff0000; stroke-linejoin: miter"/>
   </g>
   <g id="patch_4">
    <path d="M 886.658147 338.4 
L 912.881789 338.4 
L 912.881789 86.4 
L 886.658147 86.4 
z
" clip-path="url(#p55509bbc6e)" style="fill: #008000; opacity: 0.4; stroke: #008000; stroke-linejoin: miter"/>
   </g>
   <g id="patch_5">
    <path d="M 918.632588 338.4 
L 995.578275 338.4 
L 995.578275 86.4 
L 918.632588 86.4 
z
" clip-path="url(#p55509bbc6e)" style="fill: #0000ff; opacity: 0.4; stroke: #0000ff; stroke-linejoin: miter"/>
   </g>
   <g id="patch_6">
    <path d="M 1120.025559 338.4 
L 1264.945687 338.4 
L 1264.945687 86.4 
L 1120.025559 86.4 
z
" clip-path="url(#p55509bbc6e)" style="fill: #800080; opacity: 0.4; stroke: #800080; stroke-linejoin: miter"/>
   </g>
   <g id="matplotlib.axis_1">
    <g id="xtick_1">
     <g id="line2d_1">
      <defs>
       <path id="m2f7d3448c1" d="M 0 0 
L 0 3.5 
" style="stroke: #000000; stroke-width: 0.8"/>
      </defs>
      <g>
       <use xlink:href="#m2f7d3448c1" x="180" y="338.4" style="stroke: #000000; stroke-width: 0.8"/>
      </g>
     </g>
     <g id="text_1">
      <!-- 20000 -->
      <g transform="translate(164.09375 352.998437) scale(0.1 -0.1)">
       <defs>
        <path id="DejaVuSans-32" d="M 1228 531 
L 3431 531 
L 3431 0 
L 469 0 
L 469 531 
Q 828 903 1448 1529 
Q 2069 2156 2228 2338 
Q 2531 2678 2651 2914 
Q 2772 3150 2772 3378 
Q 2772 3750 2511 3984 
Q 2250 4219 1831 4219 
Q 1534 4219 1204 4116 
Q 875 4013 500 3803 
L 500 4441 
Q 881 4594 1212 4672 
Q 1544 4750 1819 4750 
Q 2544 4750 2975 4387 
Q 3406 4025 3406 3419 
Q 3406 3131 3298 2873 
Q 3191 2616 2906 2266 
Q 2828 2175 2409 1742 
Q 1991 1309 1228 531 
z
" transform="scale(0.015625)"/>
        <path id="DejaVuSans-30" d="M 2034 4250 
Q 1547 4250 1301 3770 
Q 1056 3291 1056 2328 
Q 1056 1369 1301 889 
Q 1547 409 2034 409 
Q 2525 409 2770 889 
Q 3016 1369 3016 2328 
Q 3016 3291 2770 3770 
Q 2525 4250 2034 4250 
z
M 2034 4750 
Q 2819 4750 3233 4129 
Q 3647 3509 3647 2328 
Q 3647 1150 3233 529 
Q 2819 -91 2034 -91 
Q 1250 -91 836 529 
Q 422 1150 422 2328 
Q 422 3509 836 4129 
Q 1250 4750 2034 4750 
z
" transform="scale(0.015625)"/>
       </defs>
       <use xlink:href="#DejaVuSans-32"/>
       <use xlink:href="#DejaVuSans-30" x="63.623047"/>
       <use xlink:href="#DejaVuSans-30" x="127.246094"/>
       <use xlink:href="#DejaVuSans-30" x="190.869141"/>
       <use xlink:href="#DejaVuSans-30" x="254.492188"/>
      </g>
     </g>
    </g>
    <g id="xtick_2">
     <g id="line2d_2">
      <g>
       <use xlink:href="#m2f7d3448c1" x="410.031949" y="338.4" style="stroke: #000000; stroke-width: 0.8"/>
      </g>
     </g>
     <g id="text_2">
      <!-- 22000 -->
      <g transform="translate(394.125699 352.998437) scale(0.1 -0.1)">
       <use xlink:href="#DejaVuSans-32"/>
       <use xlink:href="#DejaVuSans-32" x="63.623047"/>
       <use xlink:href="#DejaVuSans-30" x="127.246094"/>
       <use xlink:href="#DejaVuSans-30" x="190.869141"/>
       <use xlink:href="#DejaVuSans-30" x="254.492188"/>
      </g>
     </g>
    </g>
    <g id="xtick_3">
     <g id="line2d_3">
      <g>
       <use xlink:href="#m2f7d3448c1" x="640.063898" y="338.4" style="stroke: #000000; stroke-width: 0.8"/>
      </g>
     </g>
     <g id="text_3">
      <!-- 24000 -->
      <g transform="translate(624.157648 352.998437) scale(0.1 -0.1)">
       <defs>
        <path id="DejaVuSans-34" d="M 2419 4116 
L 825 1625 
L 2419 1625 
L 2419 4116 
z
M 2253 4666 
L 3047 4666 
L 3047 1625 
L 3713 1625 
L 3713 1100 
L 3047 1100 
L 3047 0 
L 2419 0 
L 2419 1100 
L 313 1100 
L 313 1709 
L 2253 4666 
z
" transform="scale(0.015625)"/>
       </defs>
       <use xlink:href="#DejaVuSans-32"/>
       <use xlink:href="#DejaVuSans-34" x="63.623047"/>
       <use xlink:href="#DejaVuSans-30" x="127.246094"/>
       <use xlink:href="#DejaVuSans-30" x="190.869141"/>
       <use xlink:href="#DejaVuSans-30" x="254.492188"/>
      </g>
     </g>
    </g>
    <g id="xtick_4">
     <g id="line2d_4">
      <g>
       <use xlink:href="#m2f7d3448c1" x="870.095847" y="338.4" style="stroke: #000000; stroke-width: 0.8"/>
      </g>
     </g>
     <g id="text_4">
      <!-- 26000 -->
      <g transform="translate(854.189597 352.998437) scale(0.1 -0.1)">
       <defs>
        <path id="DejaVuSans-36" d="M 2113 2584 
Q 1688 2584 1439 2293 
Q 1191 2003 1191 1497 
Q 1191 994 1439 701 
Q 1688 409 2113 409 
Q 2538 409 2786 701 
Q 3034 994 3034 1497 
Q 3034 2003 2786 2293 
Q 2538 2584 2113 2584 
z
M 3366 4563 
L 3366 3988 
Q 3128 4100 2886 4159 
Q 2644 4219 2406 4219 
Q 1781 4219 1451 3797 
Q 1122 3375 1075 2522 
Q 1259 2794 1537 2939 
Q 1816 3084 2150 3084 
Q 2853 3084 3261 2657 
Q 3669 2231 3669 1497 
Q 3669 778 3244 343 
Q 2819 -91 2113 -91 
Q 1303 -91 875 529 
Q 447 1150 447 2328 
Q 447 3434 972 4092 
Q 1497 4750 2381 4750 
Q 2619 4750 2861 4703 
Q 3103 4656 3366 4563 
z
" transform="scale(0.015625)"/>
       </defs>
       <use xlink:href="#DejaVuSans-32"/>
       <use xlink:href="#DejaVuSans-36" x="63.623047"/>
       <use xlink:href="#DejaVuSans-30" x="127.246094"/>
       <use xlink:href="#DejaVuSans-30" x="190.869141"/>
       <use xlink:href="#DejaVuSans-30" x="254.492188"/>
      </g>
     </g>
    </g>
    <g id="xtick_5">
     <g id="line2d_5">
      <g>
       <use xlink:href="#m2f7d3448c1" x="1100.127796" y="338.4" style="stroke: #000000; stroke-width: 0.8"/>
      </g>
     </g>
     <g id="text_5">
      <!-- 28000 -->
      <g transform="translate(1084.221546 352.998437) scale(0.1 -0.1)">
       <defs>
        <path id="DejaVuSans-38" d="M 2034 2216 
Q 1584 2216 1326 1975 
Q 1069 1734 1069 1313 
Q 1069 891 1326 650 
Q 1584 409 2034 409 
Q 2484 409 2743 651 
Q 3003 894 3003 1313 
Q 3003 1734 2745 1975 
Q 2488 2216 2034 2216 
z
M 1403 2484 
Q 997 2584 770 2862 
Q 544 3141 544 3541 
Q 544 4100 942 4425 
Q 1341 4750 2034 4750 
Q 2731 4750 3128 4425 
Q 3525 4100 3525 3541 
Q 3525 3141 3298 2862 
Q 3072 2584 2669 2484 
Q 3125 2378 3379 2068 
Q 3634 1759 3634 1313 
Q 3634 634 3220 271 
Q 2806 -91 2034 -91 
Q 1263 -91 848 271 
Q 434 634 434 1313 
Q 434 1759 690 2068 
Q 947 2378 1403 2484 
z
M 1172 3481 
Q 1172 3119 1398 2916 
Q 1625 2713 2034 2713 
Q 2441 2713 2670 2916 
Q 2900 3119 2900 3481 
Q 2900 3844 2670 4047 
Q 2441 4250 2034 4250 
Q 1625 4250 1398 4047 
Q 1172 3844 1172 3481 
z
" transform="scale(0.015625)"/>
       </defs>
       <use xlink:href="#DejaVuSans-32"/>
       <use xlink:href="#DejaVuSans-38" x="63.623047"/>
       <use xlink:href="#DejaVuSans-30" x="127.246094"/>
       <use xlink:href="#DejaVuSans-30" x="190.869141"/>
       <use xlink:href="#DejaVuSans-30" x="254.492188"/>
      </g>
     </g>
    </g>
    <g id="text_6">
     <!-- Genome position -->
     <g transform="translate(695.480469 366.676562) scale(0.1 -0.1)">
      <defs>
       <path id="DejaVuSans-47" d="M 3809 666 
L 3809 1919 
L 2778 1919 
L 2778 2438 
L 4434 2438 
L 4434 434 
Q 4069 175 3628 42 
Q 3188 -91 2688 -91 
Q 1594 -91 976 548 
Q 359 1188 359 2328 
Q 359 3472 976 4111 
Q 1594 4750 2688 4750 
Q 3144 4750 3555 4637 
Q 3966 4525 4313 4306 
L 4313 3634 
Q 3963 3931 3569 4081 
Q 3175 4231 2741 4231 
Q 1884 4231 1454 3753 
Q 1025 3275 1025 2328 
Q 1025 1384 1454 906 
Q 1884 428 2741 428 
Q 3075 428 3337 486 
Q 3600 544 3809 666 
z
" transform="scale(0.015625)"/>
       <path id="DejaVuSans-65" d="M 3597 1894 
L 3597 1613 
L 953 1613 
Q 991 1019 1311 708 
Q 1631 397 2203 397 
Q 2534 397 2845 478 
Q 3156 559 3463 722 
L 3463 178 
Q 3153 47 2828 -22 
Q 2503 -91 2169 -91 
Q 1331 -91 842 396 
Q 353 884 353 1716 
Q 353 2575 817 3079 
Q 1281 3584 2069 3584 
Q 2775 3584 3186 3129 
Q 3597 2675 3597 1894 
z
M 3022 2063 
Q 3016 2534 2758 2815 
Q 2500 3097 2075 3097 
Q 1594 3097 1305 2825 
Q 1016 2553 972 2059 
L 3022 2063 
z
" transform="scale(0.015625)"/>
       <path id="DejaVuSans-6e" d="M 3513 2113 
L 3513 0 
L 2938 0 
L 2938 2094 
Q 2938 2591 2744 2837 
Q 2550 3084 2163 3084 
Q 1697 3084 1428 2787 
Q 1159 2491 1159 1978 
L 1159 0 
L 581 0 
L 581 3500 
L 1159 3500 
L 1159 2956 
Q 1366 3272 1645 3428 
Q 1925 3584 2291 3584 
Q 2894 3584 3203 3211 
Q 3513 2838 3513 2113 
z
" transform="scale(0.015625)"/>
       <path id="DejaVuSans-6f" d="M 1959 3097 
Q 1497 3097 1228 2736 
Q 959 2375 959 1747 
Q 959 1119 1226 758 
Q 1494 397 1959 397 
Q 2419 397 2687 759 
Q 2956 1122 2956 1747 
Q 2956 2369 2687 2733 
Q 2419 3097 1959 3097 
z
M 1959 3584 
Q 2709 3584 3137 3096 
Q 3566 2609 3566 1747 
Q 3566 888 3137 398 
Q 2709 -91 1959 -91 
Q 1206 -91 779 398 
Q 353 888 353 1747 
Q 353 2609 779 3096 
Q 1206 3584 1959 3584 
z
" transform="scale(0.015625)"/>
       <path id="DejaVuSans-6d" d="M 3328 2828 
Q 3544 3216 3844 3400 
Q 4144 3584 4550 3584 
Q 5097 3584 5394 3201 
Q 5691 2819 5691 2113 
L 5691 0 
L 5113 0 
L 5113 2094 
Q 5113 2597 4934 2840 
Q 4756 3084 4391 3084 
Q 3944 3084 3684 2787 
Q 3425 2491 3425 1978 
L 3425 0 
L 2847 0 
L 2847 2094 
Q 2847 2600 2669 2842 
Q 2491 3084 2119 3084 
Q 1678 3084 1418 2786 
Q 1159 2488 1159 1978 
L 1159 0 
L 581 0 
L 581 3500 
L 1159 3500 
L 1159 2956 
Q 1356 3278 1631 3431 
Q 1906 3584 2284 3584 
Q 2666 3584 2933 3390 
Q 3200 3197 3328 2828 
z
" transform="scale(0.015625)"/>
       <path id="DejaVuSans-20" transform="scale(0.015625)"/>
       <path id="DejaVuSans-70" d="M 1159 525 
L 1159 -1331 
L 581 -1331 
L 581 3500 
L 1159 3500 
L 1159 2969 
Q 1341 3281 1617 3432 
Q 1894 3584 2278 3584 
Q 2916 3584 3314 3078 
Q 3713 2572 3713 1747 
Q 3713 922 3314 415 
Q 2916 -91 2278 -91 
Q 1894 -91 1617 61 
Q 1341 213 1159 525 
z
M 3116 1747 
Q 3116 2381 2855 2742 
Q 2594 3103 2138 3103 
Q 1681 3103 1420 2742 
Q 1159 2381 1159 1747 
Q 1159 1113 1420 752 
Q 1681 391 2138 391 
Q 2594 391 2855 752 
Q 3116 1113 3116 1747 
z
" transform="scale(0.015625)"/>
       <path id="DejaVuSans-73" d="M 2834 3397 
L 2834 2853 
Q 2591 2978 2328 3040 
Q 2066 3103 1784 3103 
Q 1356 3103 1142 2972 
Q 928 2841 928 2578 
Q 928 2378 1081 2264 
Q 1234 2150 1697 2047 
L 1894 2003 
Q 2506 1872 2764 1633 
Q 3022 1394 3022 966 
Q 3022 478 2636 193 
Q 2250 -91 1575 -91 
Q 1294 -91 989 -36 
Q 684 19 347 128 
L 347 722 
Q 666 556 975 473 
Q 1284 391 1588 391 
Q 1994 391 2212 530 
Q 2431 669 2431 922 
Q 2431 1156 2273 1281 
Q 2116 1406 1581 1522 
L 1381 1569 
Q 847 1681 609 1914 
Q 372 2147 372 2553 
Q 372 3047 722 3315 
Q 1072 3584 1716 3584 
Q 2034 3584 2315 3537 
Q 2597 3491 2834 3397 
z
" transform="scale(0.015625)"/>
       <path id="DejaVuSans-69" d="M 603 3500 
L 1178 3500 
L 1178 0 
L 603 0 
L 603 3500 
z
M 603 4863 
L 1178 4863 
L 1178 4134 
L 603 4134 
L 603 4863 
z
" transform="scale(0.015625)"/>
       <path id="DejaVuSans-74" d="M 1172 4494 
L 1172 3500 
L 2356 3500 
L 2356 3053 
L 1172 3053 
L 1172 1153 
Q 1172 725 1289 603 
Q 1406 481 1766 481 
L 2356 481 
L 2356 0 
L 1766 0 
Q 1100 0 847 248 
Q 594 497 594 1153 
L 594 3053 
L 172 3053 
L 172 3500 
L 594 3500 
L 594 4494 
L 1172 4494 
z
" transform="scale(0.015625)"/>
      </defs>
      <use xlink:href="#DejaVuSans-47"/>
      <use xlink:href="#DejaVuSans-65" x="77.490234"/>
      <use xlink:href="#DejaVuSans-6e" x="139.013672"/>
      <use xlink:href="#DejaVuSans-6f" x="202.392578"/>
      <use xlink:href="#DejaVuSans-6d" x="263.574219"/>
      <use xlink:href="#DejaVuSans-65" x="360.986328"/>
      <use xlink:href="#DejaVuSans-20" x="422.509766"/>
      <use xlink:href="#DejaVuSans-70" x="454.296875"/>
      <use xlink:href="#DejaVuSans-6f" x="517.773438"/>
      <use xlink:href="#DejaVuSans-73" x="578.955078"/>
      <use xlink:href="#DejaVuSans-69" x="631.054688"/>
      <use xlink:href="#DejaVuSans-74" x="658.837891"/>
      <use xlink:href="#DejaVuSans-69" x="698.046875"/>
      <use xlink:href="#DejaVuSans-6f" x="725.830078"/>
      <use xlink:href="#DejaVuSans-6e" x="787.011719"/>
     </g>
    </g>
   </g>
   <g id="matplotlib.axis_2">
    <g id="ytick_1">
     <g id="line2d_6">
      <defs>
       <path id="md87da6b635" d="M 0 0 
L -3.5 0 
" style="stroke: #000000; stroke-width: 0.8"/>
      </defs>
      <g>
       <use xlink:href="#md87da6b635" x="180" y="326.945455" style="stroke: #000000; stroke-width: 0.8"/>
      </g>
     </g>
     <g id="text_7">
      <!-- 0.0 -->
      <g transform="translate(157.096875 330.744673) scale(0.1 -0.1)">
       <defs>
        <path id="DejaVuSans-2e" d="M 684 794 
L 1344 794 
L 1344 0 
L 684 0 
L 684 794 
z
" transform="scale(0.015625)"/>
       </defs>
       <use xlink:href="#DejaVuSans-30"/>
       <use xlink:href="#DejaVuSans-2e" x="63.623047"/>
       <use xlink:href="#DejaVuSans-30" x="95.410156"/>
      </g>
     </g>
    </g>
    <g id="ytick_2">
     <g id="line2d_7">
      <g>
       <use xlink:href="#md87da6b635" x="180" y="281.127273" style="stroke: #000000; stroke-width: 0.8"/>
      </g>
     </g>
     <g id="text_8">
      <!-- 0.2 -->
      <g transform="translate(157.096875 284.926491) scale(0.1 -0.1)">
       <use xlink:href="#DejaVuSans-30"/>
       <use xlink:href="#DejaVuSans-2e" x="63.623047"/>
       <use xlink:href="#DejaVuSans-32" x="95.410156"/>
      </g>
     </g>
    </g>
    <g id="ytick_3">
     <g id="line2d_8">
      <g>
       <use xlink:href="#md87da6b635" x="180" y="235.309091" style="stroke: #000000; stroke-width: 0.8"/>
      </g>
     </g>
     <g id="text_9">
      <!-- 0.4 -->
      <g transform="translate(157.096875 239.10831) scale(0.1 -0.1)">
       <use xlink:href="#DejaVuSans-30"/>
       <use xlink:href="#DejaVuSans-2e" x="63.623047"/>
       <use xlink:href="#DejaVuSans-34" x="95.410156"/>
      </g>
     </g>
    </g>
    <g id="ytick_4">
     <g id="line2d_9">
      <g>
       <use xlink:href="#md87da6b635" x="180" y="189.490909" style="stroke: #000000; stroke-width: 0.8"/>
      </g>
     </g>
     <g id="text_10">
      <!-- 0.6 -->
      <g transform="translate(157.096875 193.290128) scale(0.1 -0.1)">
       <use xlink:href="#DejaVuSans-30"/>
       <use xlink:href="#DejaVuSans-2e" x="63.623047"/>
       <use xlink:href="#DejaVuSans-36" x="95.410156"/>
      </g>
     </g>
    </g>
    <g id="ytick_5">
     <g id="line2d_10">
      <g>
       <use xlink:href="#md87da6b635" x="180" y="143.672727" style="stroke: #000000; stroke-width: 0.8"/>
      </g>
     </g>
     <g id="text_11">
      <!-- 0.8 -->
      <g transform="translate(157.096875 147.471946) scale(0.1 -0.1)">
       <use xlink:href="#DejaVuSans-30"/>
       <use xlink:href="#DejaVuSans-2e" x="63.623047"/>
       <use xlink:href="#DejaVuSans-38" x="95.410156"/>
      </g>
     </g>
    </g>
    <g id="ytick_6">
     <g id="line2d_11">
      <g>
       <use xlink:href="#md87da6b635" x="180" y="97.854545" style="stroke: #000000; stroke-width: 0.8"/>
      </g>
     </g>
     <g id="text_12">
      <!-- 1.0 -->
      <g transform="translate(157.096875 101.653764) scale(0.1 -0.1)">
       <defs>
        <path id="DejaVuSans-31" d="M 794 531 
L 1825 531 
L 1825 4091 
L 703 3866 
L 703 4441 
L 1819 4666 
L 2450 4666 
L 2450 531 
L 3481 531 
L 3481 0 
L 794 0 
L 794 531 
z
" transform="scale(0.015625)"/>
       </defs>
       <use xlink:href="#DejaVuSans-31"/>
       <use xlink:href="#DejaVuSans-2e" x="63.623047"/>
       <use xlink:href="#DejaVuSans-30" x="95.410156"/>
      </g>
     </g>
    </g>
    <g id="text_13">
     <!-- Avg. mutation occurrences -->
     <g transform="translate(151.017188 279.38125) rotate(-90) scale(0.1 -0.1)">
      <defs>
       <path id="DejaVuSans-41" d="M 2188 4044 
L 1331 1722 
L 3047 1722 
L 2188 4044 
z
M 1831 4666 
L 2547 4666 
L 4325 0 
L 3669 0 
L 3244 1197 
L 1141 1197 
L 716 0 
L 50 0 
L 1831 4666 
z
" transform="scale(0.015625)"/>
       <path id="DejaVuSans-76" d="M 191 3500 
L 800 3500 
L 1894 563 
L 2988 3500 
L 3597 3500 
L 2284 0 
L 1503 0 
L 191 3500 
z
" transform="scale(0.015625)"/>
       <path id="DejaVuSans-67" d="M 2906 1791 
Q 2906 2416 2648 2759 
Q 2391 3103 1925 3103 
Q 1463 3103 1205 2759 
Q 947 2416 947 1791 
Q 947 1169 1205 825 
Q 1463 481 1925 481 
Q 2391 481 2648 825 
Q 2906 1169 2906 1791 
z
M 3481 434 
Q 3481 -459 3084 -895 
Q 2688 -1331 1869 -1331 
Q 1566 -1331 1297 -1286 
Q 1028 -1241 775 -1147 
L 775 -588 
Q 1028 -725 1275 -790 
Q 1522 -856 1778 -856 
Q 2344 -856 2625 -561 
Q 2906 -266 2906 331 
L 2906 616 
Q 2728 306 2450 153 
Q 2172 0 1784 0 
Q 1141 0 747 490 
Q 353 981 353 1791 
Q 353 2603 747 3093 
Q 1141 3584 1784 3584 
Q 2172 3584 2450 3431 
Q 2728 3278 2906 2969 
L 2906 3500 
L 3481 3500 
L 3481 434 
z
" transform="scale(0.015625)"/>
       <path id="DejaVuSans-75" d="M 544 1381 
L 544 3500 
L 1119 3500 
L 1119 1403 
Q 1119 906 1312 657 
Q 1506 409 1894 409 
Q 2359 409 2629 706 
Q 2900 1003 2900 1516 
L 2900 3500 
L 3475 3500 
L 3475 0 
L 2900 0 
L 2900 538 
Q 2691 219 2414 64 
Q 2138 -91 1772 -91 
Q 1169 -91 856 284 
Q 544 659 544 1381 
z
M 1991 3584 
L 1991 3584 
z
" transform="scale(0.015625)"/>
       <path id="DejaVuSans-61" d="M 2194 1759 
Q 1497 1759 1228 1600 
Q 959 1441 959 1056 
Q 959 750 1161 570 
Q 1363 391 1709 391 
Q 2188 391 2477 730 
Q 2766 1069 2766 1631 
L 2766 1759 
L 2194 1759 
z
M 3341 1997 
L 3341 0 
L 2766 0 
L 2766 531 
Q 2569 213 2275 61 
Q 1981 -91 1556 -91 
Q 1019 -91 701 211 
Q 384 513 384 1019 
Q 384 1609 779 1909 
Q 1175 2209 1959 2209 
L 2766 2209 
L 2766 2266 
Q 2766 2663 2505 2880 
Q 2244 3097 1772 3097 
Q 1472 3097 1187 3025 
Q 903 2953 641 2809 
L 641 3341 
Q 956 3463 1253 3523 
Q 1550 3584 1831 3584 
Q 2591 3584 2966 3190 
Q 3341 2797 3341 1997 
z
" transform="scale(0.015625)"/>
       <path id="DejaVuSans-63" d="M 3122 3366 
L 3122 2828 
Q 2878 2963 2633 3030 
Q 2388 3097 2138 3097 
Q 1578 3097 1268 2742 
Q 959 2388 959 1747 
Q 959 1106 1268 751 
Q 1578 397 2138 397 
Q 2388 397 2633 464 
Q 2878 531 3122 666 
L 3122 134 
Q 2881 22 2623 -34 
Q 2366 -91 2075 -91 
Q 1284 -91 818 406 
Q 353 903 353 1747 
Q 353 2603 823 3093 
Q 1294 3584 2113 3584 
Q 2378 3584 2631 3529 
Q 2884 3475 3122 3366 
z
" transform="scale(0.015625)"/>
       <path id="DejaVuSans-72" d="M 2631 2963 
Q 2534 3019 2420 3045 
Q 2306 3072 2169 3072 
Q 1681 3072 1420 2755 
Q 1159 2438 1159 1844 
L 1159 0 
L 581 0 
L 581 3500 
L 1159 3500 
L 1159 2956 
Q 1341 3275 1631 3429 
Q 1922 3584 2338 3584 
Q 2397 3584 2469 3576 
Q 2541 3569 2628 3553 
L 2631 2963 
z
" transform="scale(0.015625)"/>
      </defs>
      <use xlink:href="#DejaVuSans-41"/>
      <use xlink:href="#DejaVuSans-76" x="62.533203"/>
      <use xlink:href="#DejaVuSans-67" x="121.712891"/>
      <use xlink:href="#DejaVuSans-2e" x="185.189453"/>
      <use xlink:href="#DejaVuSans-20" x="216.976562"/>
      <use xlink:href="#DejaVuSans-6d" x="248.763672"/>
      <use xlink:href="#DejaVuSans-75" x="346.175781"/>
      <use xlink:href="#DejaVuSans-74" x="409.554688"/>
      <use xlink:href="#DejaVuSans-61" x="448.763672"/>
      <use xlink:href="#DejaVuSans-74" x="510.042969"/>
      <use xlink:href="#DejaVuSans-69" x="549.251953"/>
      <use xlink:href="#DejaVuSans-6f" x="577.035156"/>
      <use xlink:href="#DejaVuSans-6e" x="638.216797"/>
      <use xlink:href="#DejaVuSans-20" x="701.595703"/>
      <use xlink:href="#DejaVuSans-6f" x="733.382812"/>
      <use xlink:href="#DejaVuSans-63" x="794.564453"/>
      <use xlink:href="#DejaVuSans-63" x="849.544922"/>
      <use xlink:href="#DejaVuSans-75" x="904.525391"/>
      <use xlink:href="#DejaVuSans-72" x="967.904297"/>
      <use xlink:href="#DejaVuSans-72" x="1007.267578"/>
      <use xlink:href="#DejaVuSans-65" x="1046.130859"/>
      <use xlink:href="#DejaVuSans-6e" x="1107.654297"/>
      <use xlink:href="#DejaVuSans-63" x="1171.033203"/>
      <use xlink:href="#DejaVuSans-65" x="1226.013672"/>
      <use xlink:href="#DejaVuSans-73" x="1287.537109"/>
     </g>
    </g>
   </g>
   <g id="line2d_12">
    <path d="M 179.884984 326.945455 
L 199.897764 326.945455 
L 200.01278 311.672727 
L 200.127796 326.945455 
L 210.479233 326.945455 
L 210.594249 220.036364 
L 212.204473 220.036364 
L 212.319489 326.945455 
L 212.894569 326.945455 
L 213.009585 319.309091 
L 213.124601 326.945455 
L 223.476038 326.945455 
L 223.591054 319.309091 
L 223.70607 326.945455 
L 224.28115 326.945455 
L 224.396166 319.309091 
L 224.511182 326.945455 
L 250.964856 326.945455 
L 251.079872 288.763636 
L 251.194888 326.945455 
L 255.910543 326.945455 
L 256.025559 296.4 
L 256.140575 326.945455 
L 297.43131 326.945455 
L 297.546326 319.309091 
L 297.661342 326.945455 
L 310.198083 326.945455 
L 310.313099 319.309091 
L 310.428115 326.945455 
L 349.41853 326.945455 
L 349.533546 319.309091 
L 349.648562 326.945455 
L 354.824281 326.945455 
L 354.939297 319.309091 
L 355.054313 326.945455 
L 359.194888 326.945455 
L 359.309904 319.309091 
L 359.42492 326.945455 
L 371.271565 326.945455 
L 371.386581 97.854545 
L 371.961661 97.854545 
L 372.076677 326.945455 
L 380.242812 326.945455 
L 380.357827 319.309091 
L 380.472843 326.945455 
L 385.188498 326.945455 
L 385.303514 319.309091 
L 385.41853 326.945455 
L 393.699681 326.945455 
L 393.814696 319.309091 
L 393.929712 326.945455 
L 397.380192 326.945455 
L 397.495208 97.854545 
L 397.72524 97.854545 
L 397.840256 326.945455 
L 398.530351 326.945455 
L 398.645367 319.309091 
L 398.760383 326.945455 
L 447.98722 326.945455 
L 448.102236 319.309091 
L 448.217252 326.945455 
L 520.5623 326.945455 
L 520.677316 97.854545 
L 520.792332 326.945455 
L 523.207668 326.945455 
L 523.322684 319.309091 
L 523.4377 326.945455 
L 534.594249 326.945455 
L 534.709265 319.309091 
L 534.824281 326.945455 
L 544.485623 326.945455 
L 544.600639 97.854545 
L 544.715655 326.945455 
L 559.667732 326.945455 
L 559.782748 97.854545 
L 559.897764 326.945455 
L 562.313099 326.945455 
L 562.428115 319.309091 
L 562.543131 326.945455 
L 574.619808 326.945455 
L 574.734824 319.309091 
L 574.84984 326.945455 
L 582.785942 326.945455 
L 582.900958 97.854545 
L 583.015974 326.945455 
L 589.686901 326.945455 
L 589.801917 311.672727 
L 589.916933 326.945455 
L 594.86262 326.945455 
L 594.977636 97.854545 
L 595.092652 326.945455 
L 639.71885 326.945455 
L 639.833866 319.309091 
L 639.948882 326.945455 
L 686.530351 326.945455 
L 686.645367 97.854545 
L 686.760383 326.945455 
L 733.456869 326.945455 
L 733.571885 97.854545 
L 733.686901 326.945455 
L 739.207668 326.945455 
L 739.322684 319.309091 
L 739.4377 326.945455 
L 748.753994 326.945455 
L 748.86901 319.309091 
L 748.984026 326.945455 
L 792.57508 326.945455 
L 792.690096 319.309091 
L 792.805112 326.945455 
L 807.98722 326.945455 
L 808.102236 311.672727 
L 808.217252 326.945455 
L 825.699681 326.945455 
L 825.814696 319.309091 
L 825.929712 326.945455 
L 840.421725 326.945455 
L 840.536741 319.309091 
L 840.651757 326.945455 
L 878.952077 326.945455 
L 879.067093 319.309091 
L 879.182109 326.945455 
L 896.434505 326.945455 
L 896.549521 319.309091 
L 896.664537 326.945455 
L 930.249201 326.945455 
L 930.364217 319.309091 
L 930.479233 326.945455 
L 933.469649 326.945455 
L 933.584665 319.309091 
L 933.699681 326.945455 
L 938.070288 326.945455 
L 938.185304 311.672727 
L 938.300319 326.945455 
L 942.210863 326.945455 
L 942.325879 319.309091 
L 942.440895 326.945455 
L 944.626198 326.945455 
L 944.741214 319.309091 
L 944.85623 326.945455 
L 946.121406 326.945455 
L 946.236422 319.309091 
L 946.351438 326.945455 
L 957.047923 326.945455 
L 957.162939 319.309091 
L 957.277955 326.945455 
L 988.102236 326.945455 
L 988.217252 319.309091 
L 988.332268 326.945455 
L 1006.964856 326.945455 
L 1007.079872 311.672727 
L 1007.194888 326.945455 
L 1018.58147 326.945455 
L 1018.696486 319.309091 
L 1018.811502 326.945455 
L 1022.261981 326.945455 
L 1022.376997 319.309091 
L 1022.492013 326.945455 
L 1030.083067 326.945455 
L 1030.198083 304.036364 
L 1030.313099 326.945455 
L 1033.99361 326.945455 
L 1034.108626 319.309091 
L 1034.223642 326.945455 
L 1035.603834 326.945455 
L 1035.71885 319.309091 
L 1035.833866 326.945455 
L 1039.744409 326.945455 
L 1039.859425 319.309091 
L 1039.974441 326.945455 
L 1042.734824 326.945455 
L 1042.84984 311.672727 
L 1042.964856 326.945455 
L 1046.070288 326.945455 
L 1046.185304 319.309091 
L 1046.300319 326.945455 
L 1047.450479 326.945455 
L 1047.565495 319.309091 
L 1047.680511 326.945455 
L 1052.626198 326.945455 
L 1052.741214 319.309091 
L 1052.85623 326.945455 
L 1058.607029 326.945455 
L 1058.722045 319.309091 
L 1058.837061 326.945455 
L 1061.022364 326.945455 
L 1061.13738 319.309091 
L 1061.252396 326.945455 
L 1080.690096 326.945455 
L 1080.805112 319.309091 
L 1080.920128 326.945455 
L 1085.175719 326.945455 
L 1085.290735 97.854545 
L 1085.405751 326.945455 
L 1093.916933 326.945455 
L 1094.031949 97.854545 
L 1094.146965 326.945455 
L 1099.322684 326.945455 
L 1099.4377 181.854545 
L 1099.552716 326.945455 
L 1101.162939 326.945455 
L 1101.277955 97.854545 
L 1101.392971 326.945455 
L 1101.507987 326.945455 
L 1101.623003 319.309091 
L 1101.738019 326.945455 
L 1119.565495 326.945455 
L 1119.680511 97.854545 
L 1119.795527 326.945455 
L 1120.600639 326.945455 
L 1120.715655 97.854545 
L 1120.945687 97.854545 
L 1121.060703 326.945455 
L 1148.089457 326.945455 
L 1148.204473 319.309091 
L 1148.319489 326.945455 
L 1166.261981 326.945455 
L 1166.376997 319.309091 
L 1166.492013 326.945455 
L 1180.86901 326.945455 
L 1181.099042 311.672727 
L 1183.514377 311.672727 
L 1183.629393 319.309091 
L 1183.974441 319.309091 
L 1184.089457 326.945455 
L 1189.72524 326.945455 
L 1189.840256 97.854545 
L 1190.070288 97.854545 
L 1190.300319 326.945455 
L 1194.785942 326.945455 
L 1194.900958 319.309091 
L 1195.015974 326.945455 
L 1200.766773 326.945455 
L 1200.881789 97.854545 
L 1200.996805 326.945455 
L 1203.297125 326.945455 
L 1203.412141 319.309091 
L 1203.527157 326.945455 
L 1232.511182 326.945455 
L 1232.626198 319.309091 
L 1232.741214 326.945455 
L 1234.696486 326.945455 
L 1234.811502 319.309091 
L 1234.926518 326.945455 
L 1245.968051 326.945455 
L 1246.083067 319.309091 
L 1246.198083 326.945455 
L 1250.453674 326.945455 
L 1250.56869 319.309091 
L 1250.683706 326.945455 
L 1277.13738 326.945455 
L 1277.252396 319.309091 
L 1279.897764 319.309091 
L 1280.01278 311.672727 
L 1282.543131 311.672727 
L 1282.658147 304.036364 
L 1282.773163 311.672727 
L 1284.153355 311.672727 
L 1284.268371 296.4 
L 1284.383387 311.672727 
L 1288.408946 311.672727 
L 1288.523962 304.036364 
L 1288.638978 311.672727 
L 1288.753994 311.672727 
L 1288.86901 304.036364 
L 1288.984026 304.036364 
L 1289.099042 311.672727 
L 1292.319489 311.672727 
L 1292.434505 296.4 
L 1292.549521 311.672727 
L 1293.469649 311.672727 
L 1293.584665 204.763636 
L 1295.884984 204.763636 
L 1295.884984 204.763636 
" clip-path="url(#p55509bbc6e)" style="fill: none; stroke: #1f77b4; stroke-width: 1.5; stroke-linecap: square"/>
   </g>
   <g id="patch_7">
    <path d="M 180 338.4 
L 180 86.4 
" style="fill: none; stroke: #000000; stroke-width: 0.8; stroke-linejoin: miter; stroke-linecap: square"/>
   </g>
   <g id="patch_8">
    <path d="M 1296 338.4 
L 1296 86.4 
" style="fill: none; stroke: #000000; stroke-width: 0.8; stroke-linejoin: miter; stroke-linecap: square"/>
   </g>
   <g id="patch_9">
    <path d="M 180 338.4 
L 1296 338.4 
" style="fill: none; stroke: #000000; stroke-width: 0.8; stroke-linejoin: miter; stroke-linecap: square"/>
   </g>
   <g id="patch_10">
    <path d="M 180 86.4 
L 1296 86.4 
" style="fill: none; stroke: #000000; stroke-width: 0.8; stroke-linejoin: miter; stroke-linecap: square"/>
   </g>
   <g id="text_14">
    <!-- Alpha variants -->
    <g transform="translate(694.714687 80.4) scale(0.12 -0.12)">
     <defs>
      <path id="DejaVuSans-6c" d="M 603 4863 
L 1178 4863 
L 1178 0 
L 603 0 
L 603 4863 
z
" transform="scale(0.015625)"/>
      <path id="DejaVuSans-68" d="M 3513 2113 
L 3513 0 
L 2938 0 
L 2938 2094 
Q 2938 2591 2744 2837 
Q 2550 3084 2163 3084 
Q 1697 3084 1428 2787 
Q 1159 2491 1159 1978 
L 1159 0 
L 581 0 
L 581 4863 
L 1159 4863 
L 1159 2956 
Q 1366 3272 1645 3428 
Q 1925 3584 2291 3584 
Q 2894 3584 3203 3211 
Q 3513 2838 3513 2113 
z
" transform="scale(0.015625)"/>
     </defs>
     <use xlink:href="#DejaVuSans-41"/>
     <use xlink:href="#DejaVuSans-6c" x="68.408203"/>
     <use xlink:href="#DejaVuSans-70" x="96.191406"/>
     <use xlink:href="#DejaVuSans-68" x="159.667969"/>
     <use xlink:href="#DejaVuSans-61" x="223.046875"/>
     <use xlink:href="#DejaVuSans-20" x="284.326172"/>
     <use xlink:href="#DejaVuSans-76" x="316.113281"/>
     <use xlink:href="#DejaVuSans-61" x="375.292969"/>
     <use xlink:href="#DejaVuSans-72" x="436.572266"/>
     <use xlink:href="#DejaVuSans-69" x="477.685547"/>
     <use xlink:href="#DejaVuSans-61" x="505.46875"/>
     <use xlink:href="#DejaVuSans-6e" x="566.748047"/>
     <use xlink:href="#DejaVuSans-74" x="630.126953"/>
     <use xlink:href="#DejaVuSans-73" x="669.335938"/>
    </g>
   </g>
   <g id="legend_1">
    <g id="patch_11">
     <path d="M 187 182.46875 
L 344.15625 182.46875 
Q 346.15625 182.46875 346.15625 180.46875 
L 346.15625 93.4 
Q 346.15625 91.4 344.15625 91.4 
L 187 91.4 
Q 185 91.4 185 93.4 
L 185 180.46875 
Q 185 182.46875 187 182.46875 
z
" style="fill: #ffffff; opacity: 0.8; stroke: #cccccc; stroke-linejoin: miter"/>
    </g>
    <g id="patch_12">
     <path d="M 189 102.998438 
L 209 102.998438 
L 209 95.998438 
L 189 95.998438 
z
" style="fill: #ff0000; stroke: #ff0000; stroke-linejoin: miter"/>
    </g>
    <g id="text_15">
     <!-- S -->
     <g transform="translate(217 102.998438) scale(0.1 -0.1)">
      <defs>
       <path id="DejaVuSans-53" d="M 3425 4513 
L 3425 3897 
Q 3066 4069 2747 4153 
Q 2428 4238 2131 4238 
Q 1616 4238 1336 4038 
Q 1056 3838 1056 3469 
Q 1056 3159 1242 3001 
Q 1428 2844 1947 2747 
L 2328 2669 
Q 3034 2534 3370 2195 
Q 3706 1856 3706 1288 
Q 3706 609 3251 259 
Q 2797 -91 1919 -91 
Q 1588 -91 1214 -16 
Q 841 59 441 206 
L 441 856 
Q 825 641 1194 531 
Q 1563 422 1919 422 
Q 2459 422 2753 634 
Q 3047 847 3047 1241 
Q 3047 1584 2836 1778 
Q 2625 1972 2144 2069 
L 1759 2144 
Q 1053 2284 737 2584 
Q 422 2884 422 3419 
Q 422 4038 858 4394 
Q 1294 4750 2059 4750 
Q 2388 4750 2728 4690 
Q 3069 4631 3425 4513 
z
" transform="scale(0.015625)"/>
      </defs>
      <use xlink:href="#DejaVuSans-53"/>
     </g>
    </g>
    <g id="patch_13">
     <path d="M 189 117.676563 
L 209 117.676563 
L 209 110.676563 
L 189 110.676563 
z
" style="fill: #008000; stroke: #008000; stroke-linejoin: miter"/>
    </g>
    <g id="text_16">
     <!-- E -->
     <g transform="translate(217 117.676563) scale(0.1 -0.1)">
      <defs>
       <path id="DejaVuSans-45" d="M 628 4666 
L 3578 4666 
L 3578 4134 
L 1259 4134 
L 1259 2753 
L 3481 2753 
L 3481 2222 
L 1259 2222 
L 1259 531 
L 3634 531 
L 3634 0 
L 628 0 
L 628 4666 
z
" transform="scale(0.015625)"/>
      </defs>
      <use xlink:href="#DejaVuSans-45"/>
     </g>
    </g>
    <g id="patch_14">
     <path d="M 189 132.354688 
L 209 132.354688 
L 209 125.354688 
L 189 125.354688 
z
" style="fill: #0000ff; stroke: #0000ff; stroke-linejoin: miter"/>
    </g>
    <g id="text_17">
     <!-- M -->
     <g transform="translate(217 132.354688) scale(0.1 -0.1)">
      <defs>
       <path id="DejaVuSans-4d" d="M 628 4666 
L 1569 4666 
L 2759 1491 
L 3956 4666 
L 4897 4666 
L 4897 0 
L 4281 0 
L 4281 4097 
L 3078 897 
L 2444 897 
L 1241 4097 
L 1241 0 
L 628 0 
L 628 4666 
z
" transform="scale(0.015625)"/>
      </defs>
      <use xlink:href="#DejaVuSans-4d"/>
     </g>
    </g>
    <g id="patch_15">
     <path d="M 189 147.032812 
L 209 147.032812 
L 209 140.032812 
L 189 140.032812 
z
" style="fill: #800080; stroke: #800080; stroke-linejoin: miter"/>
    </g>
    <g id="text_18">
     <!-- N -->
     <g transform="translate(217 147.032812) scale(0.1 -0.1)">
      <defs>
       <path id="DejaVuSans-4e" d="M 628 4666 
L 1478 4666 
L 3547 763 
L 3547 4666 
L 4159 4666 
L 4159 0 
L 3309 0 
L 1241 3903 
L 1241 0 
L 628 0 
L 628 4666 
z
" transform="scale(0.015625)"/>
      </defs>
      <use xlink:href="#DejaVuSans-4e"/>
     </g>
    </g>
    <g id="patch_16">
     <path d="M 189 161.710938 
L 209 161.710938 
L 209 154.710938 
L 189 154.710938 
z
" style="fill: #0000ff; stroke: #0000ff; stroke-linejoin: miter"/>
    </g>
    <g id="text_19">
     <!-- Common mutations sites -->
     <g transform="translate(217 161.710938) scale(0.1 -0.1)">
      <defs>
       <path id="DejaVuSans-43" d="M 4122 4306 
L 4122 3641 
Q 3803 3938 3442 4084 
Q 3081 4231 2675 4231 
Q 1875 4231 1450 3742 
Q 1025 3253 1025 2328 
Q 1025 1406 1450 917 
Q 1875 428 2675 428 
Q 3081 428 3442 575 
Q 3803 722 4122 1019 
L 4122 359 
Q 3791 134 3420 21 
Q 3050 -91 2638 -91 
Q 1578 -91 968 557 
Q 359 1206 359 2328 
Q 359 3453 968 4101 
Q 1578 4750 2638 4750 
Q 3056 4750 3426 4639 
Q 3797 4528 4122 4306 
z
" transform="scale(0.015625)"/>
      </defs>
      <use xlink:href="#DejaVuSans-43"/>
      <use xlink:href="#DejaVuSans-6f" x="69.824219"/>
      <use xlink:href="#DejaVuSans-6d" x="131.005859"/>
      <use xlink:href="#DejaVuSans-6d" x="228.417969"/>
      <use xlink:href="#DejaVuSans-6f" x="325.830078"/>
      <use xlink:href="#DejaVuSans-6e" x="387.011719"/>
      <use xlink:href="#DejaVuSans-20" x="450.390625"/>
      <use xlink:href="#DejaVuSans-6d" x="482.177734"/>
      <use xlink:href="#DejaVuSans-75" x="579.589844"/>
      <use xlink:href="#DejaVuSans-74" x="642.96875"/>
      <use xlink:href="#DejaVuSans-61" x="682.177734"/>
      <use xlink:href="#DejaVuSans-74" x="743.457031"/>
      <use xlink:href="#DejaVuSans-69" x="782.666016"/>
      <use xlink:href="#DejaVuSans-6f" x="810.449219"/>
      <use xlink:href="#DejaVuSans-6e" x="871.630859"/>
      <use xlink:href="#DejaVuSans-73" x="935.009766"/>
      <use xlink:href="#DejaVuSans-20" x="987.109375"/>
      <use xlink:href="#DejaVuSans-73" x="1018.896484"/>
      <use xlink:href="#DejaVuSans-69" x="1070.996094"/>
      <use xlink:href="#DejaVuSans-74" x="1098.779297"/>
      <use xlink:href="#DejaVuSans-65" x="1137.988281"/>
      <use xlink:href="#DejaVuSans-73" x="1199.511719"/>
     </g>
    </g>
    <g id="patch_17">
     <path d="M 189 176.389063 
L 209 176.389063 
L 209 169.389063 
L 189 169.389063 
z
" style="stroke: #000000; stroke-linejoin: miter"/>
    </g>
    <g id="text_20">
     <!-- Same change site -->
     <g transform="translate(217 176.389063) scale(0.1 -0.1)">
      <use xlink:href="#DejaVuSans-53"/>
      <use xlink:href="#DejaVuSans-61" x="63.476562"/>
      <use xlink:href="#DejaVuSans-6d" x="124.755859"/>
      <use xlink:href="#DejaVuSans-65" x="222.167969"/>
      <use xlink:href="#DejaVuSans-20" x="283.691406"/>
      <use xlink:href="#DejaVuSans-63" x="315.478516"/>
      <use xlink:href="#DejaVuSans-68" x="370.458984"/>
      <use xlink:href="#DejaVuSans-61" x="433.837891"/>
      <use xlink:href="#DejaVuSans-6e" x="495.117188"/>
      <use xlink:href="#DejaVuSans-67" x="558.496094"/>
      <use xlink:href="#DejaVuSans-65" x="621.972656"/>
      <use xlink:href="#DejaVuSans-20" x="683.496094"/>
      <use xlink:href="#DejaVuSans-73" x="715.283203"/>
      <use xlink:href="#DejaVuSans-69" x="767.382812"/>
      <use xlink:href="#DejaVuSans-74" x="795.166016"/>
      <use xlink:href="#DejaVuSans-65" x="834.375"/>
     </g>
    </g>
   </g>
  </g>
  <g id="axes_2">
   <g id="patch_18">
    <path d="M 180 640.8 
L 1296 640.8 
L 1296 388.8 
L 180 388.8 
z
" style="fill: #ffffff"/>
   </g>
   <g id="PathCollection_3">
    <g clip-path="url(#p19f805066f)">
     <use xlink:href="#mbe162ef06f" x="559.782748" y="400.254545" style="fill: #0000ff; stroke: #0000ff"/>
     <use xlink:href="#mbe162ef06f" x="582.900958" y="400.254545" style="fill: #0000ff; stroke: #0000ff"/>
    </g>
   </g>
   <g id="PathCollection_4">
    <g clip-path="url(#p19f805066f)">
     <use xlink:href="#m9bae516ebd" x="559.782748" y="400.254545" style="stroke: #000000"/>
    </g>
   </g>
   <g id="patch_19">
    <path d="M 348.153355 640.8 
L 787.744409 640.8 
L 787.744409 388.8 
L 348.153355 388.8 
z
" clip-path="url(#p19f805066f)" style="fill: #ff0000; opacity: 0.4; stroke: #ff0000; stroke-linejoin: miter"/>
   </g>
   <g id="patch_20">
    <path d="M 886.658147 640.8 
L 912.881789 640.8 
L 912.881789 388.8 
L 886.658147 388.8 
z
" clip-path="url(#p19f805066f)" style="fill: #008000; opacity: 0.4; stroke: #008000; stroke-linejoin: miter"/>
   </g>
   <g id="patch_21">
    <path d="M 918.632588 640.8 
L 995.578275 640.8 
L 995.578275 388.8 
L 918.632588 388.8 
z
" clip-path="url(#p19f805066f)" style="fill: #0000ff; opacity: 0.4; stroke: #0000ff; stroke-linejoin: miter"/>
   </g>
   <g id="patch_22">
    <path d="M 1120.025559 640.8 
L 1264.945687 640.8 
L 1264.945687 388.8 
L 1120.025559 388.8 
z
" clip-path="url(#p19f805066f)" style="fill: #800080; opacity: 0.4; stroke: #800080; stroke-linejoin: miter"/>
   </g>
   <g id="matplotlib.axis_3">
    <g id="xtick_6">
     <g id="line2d_13">
      <g>
       <use xlink:href="#m2f7d3448c1" x="180" y="640.8" style="stroke: #000000; stroke-width: 0.8"/>
      </g>
     </g>
     <g id="text_21">
      <!-- 20000 -->
      <g transform="translate(164.09375 655.398438) scale(0.1 -0.1)">
       <use xlink:href="#DejaVuSans-32"/>
       <use xlink:href="#DejaVuSans-30" x="63.623047"/>
       <use xlink:href="#DejaVuSans-30" x="127.246094"/>
       <use xlink:href="#DejaVuSans-30" x="190.869141"/>
       <use xlink:href="#DejaVuSans-30" x="254.492188"/>
      </g>
     </g>
    </g>
    <g id="xtick_7">
     <g id="line2d_14">
      <g>
       <use xlink:href="#m2f7d3448c1" x="410.031949" y="640.8" style="stroke: #000000; stroke-width: 0.8"/>
      </g>
     </g>
     <g id="text_22">
      <!-- 22000 -->
      <g transform="translate(394.125699 655.398438) scale(0.1 -0.1)">
       <use xlink:href="#DejaVuSans-32"/>
       <use xlink:href="#DejaVuSans-32" x="63.623047"/>
       <use xlink:href="#DejaVuSans-30" x="127.246094"/>
       <use xlink:href="#DejaVuSans-30" x="190.869141"/>
       <use xlink:href="#DejaVuSans-30" x="254.492188"/>
      </g>
     </g>
    </g>
    <g id="xtick_8">
     <g id="line2d_15">
      <g>
       <use xlink:href="#m2f7d3448c1" x="640.063898" y="640.8" style="stroke: #000000; stroke-width: 0.8"/>
      </g>
     </g>
     <g id="text_23">
      <!-- 24000 -->
      <g transform="translate(624.157648 655.398438) scale(0.1 -0.1)">
       <use xlink:href="#DejaVuSans-32"/>
       <use xlink:href="#DejaVuSans-34" x="63.623047"/>
       <use xlink:href="#DejaVuSans-30" x="127.246094"/>
       <use xlink:href="#DejaVuSans-30" x="190.869141"/>
       <use xlink:href="#DejaVuSans-30" x="254.492188"/>
      </g>
     </g>
    </g>
    <g id="xtick_9">
     <g id="line2d_16">
      <g>
       <use xlink:href="#m2f7d3448c1" x="870.095847" y="640.8" style="stroke: #000000; stroke-width: 0.8"/>
      </g>
     </g>
     <g id="text_24">
      <!-- 26000 -->
      <g transform="translate(854.189597 655.398438) scale(0.1 -0.1)">
       <use xlink:href="#DejaVuSans-32"/>
       <use xlink:href="#DejaVuSans-36" x="63.623047"/>
       <use xlink:href="#DejaVuSans-30" x="127.246094"/>
       <use xlink:href="#DejaVuSans-30" x="190.869141"/>
       <use xlink:href="#DejaVuSans-30" x="254.492188"/>
      </g>
     </g>
    </g>
    <g id="xtick_10">
     <g id="line2d_17">
      <g>
       <use xlink:href="#m2f7d3448c1" x="1100.127796" y="640.8" style="stroke: #000000; stroke-width: 0.8"/>
      </g>
     </g>
     <g id="text_25">
      <!-- 28000 -->
      <g transform="translate(1084.221546 655.398438) scale(0.1 -0.1)">
       <use xlink:href="#DejaVuSans-32"/>
       <use xlink:href="#DejaVuSans-38" x="63.623047"/>
       <use xlink:href="#DejaVuSans-30" x="127.246094"/>
       <use xlink:href="#DejaVuSans-30" x="190.869141"/>
       <use xlink:href="#DejaVuSans-30" x="254.492188"/>
      </g>
     </g>
    </g>
    <g id="text_26">
     <!-- Genome position -->
     <g transform="translate(695.480469 669.076563) scale(0.1 -0.1)">
      <use xlink:href="#DejaVuSans-47"/>
      <use xlink:href="#DejaVuSans-65" x="77.490234"/>
      <use xlink:href="#DejaVuSans-6e" x="139.013672"/>
      <use xlink:href="#DejaVuSans-6f" x="202.392578"/>
      <use xlink:href="#DejaVuSans-6d" x="263.574219"/>
      <use xlink:href="#DejaVuSans-65" x="360.986328"/>
      <use xlink:href="#DejaVuSans-20" x="422.509766"/>
      <use xlink:href="#DejaVuSans-70" x="454.296875"/>
      <use xlink:href="#DejaVuSans-6f" x="517.773438"/>
      <use xlink:href="#DejaVuSans-73" x="578.955078"/>
      <use xlink:href="#DejaVuSans-69" x="631.054688"/>
      <use xlink:href="#DejaVuSans-74" x="658.837891"/>
      <use xlink:href="#DejaVuSans-69" x="698.046875"/>
      <use xlink:href="#DejaVuSans-6f" x="725.830078"/>
      <use xlink:href="#DejaVuSans-6e" x="787.011719"/>
     </g>
    </g>
   </g>
   <g id="matplotlib.axis_4">
    <g id="ytick_7">
     <g id="line2d_18">
      <g>
       <use xlink:href="#md87da6b635" x="180" y="629.345455" style="stroke: #000000; stroke-width: 0.8"/>
      </g>
     </g>
     <g id="text_27">
      <!-- 0.0 -->
      <g transform="translate(157.096875 633.144673) scale(0.1 -0.1)">
       <use xlink:href="#DejaVuSans-30"/>
       <use xlink:href="#DejaVuSans-2e" x="63.623047"/>
       <use xlink:href="#DejaVuSans-30" x="95.410156"/>
      </g>
     </g>
    </g>
    <g id="ytick_8">
     <g id="line2d_19">
      <g>
       <use xlink:href="#md87da6b635" x="180" y="583.527273" style="stroke: #000000; stroke-width: 0.8"/>
      </g>
     </g>
     <g id="text_28">
      <!-- 0.2 -->
      <g transform="translate(157.096875 587.326491) scale(0.1 -0.1)">
       <use xlink:href="#DejaVuSans-30"/>
       <use xlink:href="#DejaVuSans-2e" x="63.623047"/>
       <use xlink:href="#DejaVuSans-32" x="95.410156"/>
      </g>
     </g>
    </g>
    <g id="ytick_9">
     <g id="line2d_20">
      <g>
       <use xlink:href="#md87da6b635" x="180" y="537.709091" style="stroke: #000000; stroke-width: 0.8"/>
      </g>
     </g>
     <g id="text_29">
      <!-- 0.4 -->
      <g transform="translate(157.096875 541.50831) scale(0.1 -0.1)">
       <use xlink:href="#DejaVuSans-30"/>
       <use xlink:href="#DejaVuSans-2e" x="63.623047"/>
       <use xlink:href="#DejaVuSans-34" x="95.410156"/>
      </g>
     </g>
    </g>
    <g id="ytick_10">
     <g id="line2d_21">
      <g>
       <use xlink:href="#md87da6b635" x="180" y="491.890909" style="stroke: #000000; stroke-width: 0.8"/>
      </g>
     </g>
     <g id="text_30">
      <!-- 0.6 -->
      <g transform="translate(157.096875 495.690128) scale(0.1 -0.1)">
       <use xlink:href="#DejaVuSans-30"/>
       <use xlink:href="#DejaVuSans-2e" x="63.623047"/>
       <use xlink:href="#DejaVuSans-36" x="95.410156"/>
      </g>
     </g>
    </g>
    <g id="ytick_11">
     <g id="line2d_22">
      <g>
       <use xlink:href="#md87da6b635" x="180" y="446.072727" style="stroke: #000000; stroke-width: 0.8"/>
      </g>
     </g>
     <g id="text_31">
      <!-- 0.8 -->
      <g transform="translate(157.096875 449.871946) scale(0.1 -0.1)">
       <use xlink:href="#DejaVuSans-30"/>
       <use xlink:href="#DejaVuSans-2e" x="63.623047"/>
       <use xlink:href="#DejaVuSans-38" x="95.410156"/>
      </g>
     </g>
    </g>
    <g id="ytick_12">
     <g id="line2d_23">
      <g>
       <use xlink:href="#md87da6b635" x="180" y="400.254545" style="stroke: #000000; stroke-width: 0.8"/>
      </g>
     </g>
     <g id="text_32">
      <!-- 1.0 -->
      <g transform="translate(157.096875 404.053764) scale(0.1 -0.1)">
       <use xlink:href="#DejaVuSans-31"/>
       <use xlink:href="#DejaVuSans-2e" x="63.623047"/>
       <use xlink:href="#DejaVuSans-30" x="95.410156"/>
      </g>
     </g>
    </g>
    <g id="text_33">
     <!-- Avg. mutation occurrences -->
     <g transform="translate(151.017188 581.78125) rotate(-90) scale(0.1 -0.1)">
      <use xlink:href="#DejaVuSans-41"/>
      <use xlink:href="#DejaVuSans-76" x="62.533203"/>
      <use xlink:href="#DejaVuSans-67" x="121.712891"/>
      <use xlink:href="#DejaVuSans-2e" x="185.189453"/>
      <use xlink:href="#DejaVuSans-20" x="216.976562"/>
      <use xlink:href="#DejaVuSans-6d" x="248.763672"/>
      <use xlink:href="#DejaVuSans-75" x="346.175781"/>
      <use xlink:href="#DejaVuSans-74" x="409.554688"/>
      <use xlink:href="#DejaVuSans-61" x="448.763672"/>
      <use xlink:href="#DejaVuSans-74" x="510.042969"/>
      <use xlink:href="#DejaVuSans-69" x="549.251953"/>
      <use xlink:href="#DejaVuSans-6f" x="577.035156"/>
      <use xlink:href="#DejaVuSans-6e" x="638.216797"/>
      <use xlink:href="#DejaVuSans-20" x="701.595703"/>
      <use xlink:href="#DejaVuSans-6f" x="733.382812"/>
      <use xlink:href="#DejaVuSans-63" x="794.564453"/>
      <use xlink:href="#DejaVuSans-63" x="849.544922"/>
      <use xlink:href="#DejaVuSans-75" x="904.525391"/>
      <use xlink:href="#DejaVuSans-72" x="967.904297"/>
      <use xlink:href="#DejaVuSans-72" x="1007.267578"/>
      <use xlink:href="#DejaVuSans-65" x="1046.130859"/>
      <use xlink:href="#DejaVuSans-6e" x="1107.654297"/>
      <use xlink:href="#DejaVuSans-63" x="1171.033203"/>
      <use xlink:href="#DejaVuSans-65" x="1226.013672"/>
      <use xlink:href="#DejaVuSans-73" x="1287.537109"/>
     </g>
    </g>
   </g>
   <g id="line2d_24">
    <path d="M 179.884984 629.345455 
L 180 629.345455 
L 180.115016 623.316746 
L 180.230032 629.345455 
L 195.297125 629.345455 
L 195.412141 623.316746 
L 195.527157 629.345455 
L 197.13738 629.345455 
L 197.252396 623.316746 
L 197.367412 629.345455 
L 198.402556 629.345455 
L 198.517572 623.316746 
L 198.632588 629.345455 
L 276.728435 629.345455 
L 276.84345 623.316746 
L 276.958466 629.345455 
L 329.405751 629.345455 
L 329.520767 617.288038 
L 329.635783 629.345455 
L 343.092652 629.345455 
L 343.207668 623.316746 
L 343.322684 629.345455 
L 354.364217 629.345455 
L 354.479233 406.283254 
L 354.594249 629.345455 
L 356.664537 629.345455 
L 356.779553 623.316746 
L 356.894569 629.345455 
L 357.009585 629.345455 
L 357.124601 623.316746 
L 357.239617 629.345455 
L 366.555911 629.345455 
L 366.670927 623.316746 
L 366.785942 629.345455 
L 369.086262 629.345455 
L 369.201278 623.316746 
L 376.332268 623.316746 
L 376.447284 617.288038 
L 376.5623 623.316746 
L 380.587859 623.316746 
L 380.702875 587.144498 
L 380.817891 623.316746 
L 393.929712 623.316746 
L 394.044728 629.345455 
L 396.805112 629.345455 
L 396.920128 611.25933 
L 397.035144 629.345455 
L 401.635783 629.345455 
L 401.750799 412.311962 
L 402.325879 412.311962 
L 402.440895 629.345455 
L 405.086262 629.345455 
L 405.201278 623.316746 
L 412.677316 623.316746 
L 412.792332 629.345455 
L 424.408946 629.345455 
L 424.523962 617.288038 
L 424.638978 629.345455 
L 434.415335 629.345455 
L 434.530351 599.201914 
L 434.645367 629.345455 
L 437.865815 629.345455 
L 437.980831 623.316746 
L 438.095847 629.345455 
L 440.051118 629.345455 
L 440.166134 623.316746 
L 440.28115 629.345455 
L 448.792332 629.345455 
L 448.907348 623.316746 
L 449.022364 629.345455 
L 452.127796 629.345455 
L 452.242812 623.316746 
L 452.357827 629.345455 
L 489.392971 629.345455 
L 489.507987 617.288038 
L 489.623003 629.345455 
L 503.769968 629.345455 
L 503.884984 400.254545 
L 504 629.345455 
L 512.741214 629.345455 
L 512.85623 400.254545 
L 512.971246 629.345455 
L 540.460064 629.345455 
L 540.57508 623.316746 
L 540.690096 629.345455 
L 559.667732 629.345455 
L 559.782748 400.254545 
L 559.897764 629.345455 
L 582.785942 629.345455 
L 582.900958 400.254545 
L 583.015974 629.345455 
L 585.086262 629.345455 
L 585.201278 623.316746 
L 585.316294 629.345455 
L 591.872204 629.345455 
L 591.98722 623.316746 
L 592.102236 629.345455 
L 600.498403 629.345455 
L 600.613419 623.316746 
L 600.728435 629.345455 
L 643.284345 629.345455 
L 643.399361 623.316746 
L 643.514377 629.345455 
L 675.488818 629.345455 
L 675.603834 400.254545 
L 675.71885 629.345455 
L 728.626198 629.345455 
L 728.741214 623.316746 
L 728.85623 629.345455 
L 735.067093 629.345455 
L 735.182109 611.25933 
L 735.297125 629.345455 
L 735.642173 629.345455 
L 735.757188 623.316746 
L 735.872204 629.345455 
L 750.479233 629.345455 
L 750.594249 611.25933 
L 750.709265 629.345455 
L 758.530351 629.345455 
L 758.645367 623.316746 
L 758.760383 629.345455 
L 776.702875 629.345455 
L 776.817891 623.316746 
L 776.932907 629.345455 
L 781.648562 629.345455 
L 781.763578 623.316746 
L 781.878594 629.345455 
L 783.028754 629.345455 
L 783.14377 593.173206 
L 783.258786 629.345455 
L 788.894569 629.345455 
L 789.009585 623.316746 
L 789.124601 629.345455 
L 794.530351 629.345455 
L 794.645367 611.25933 
L 794.760383 629.345455 
L 797.290735 629.345455 
L 797.405751 400.254545 
L 797.520767 629.345455 
L 797.635783 623.316746 
L 797.750799 629.345455 
L 818.56869 629.345455 
L 818.683706 623.316746 
L 818.798722 629.345455 
L 836.051118 629.345455 
L 836.166134 623.316746 
L 836.28115 629.345455 
L 840.421725 629.345455 
L 840.536741 623.316746 
L 840.651757 629.345455 
L 843.642173 629.345455 
L 843.757188 623.316746 
L 843.872204 629.345455 
L 888.498403 629.345455 
L 888.613419 623.316746 
L 888.728435 629.345455 
L 900.920128 629.345455 
L 901.035144 623.316746 
L 901.15016 629.345455 
L 905.290735 629.345455 
L 905.405751 623.316746 
L 905.520767 629.345455 
L 942.900958 629.345455 
L 943.015974 623.316746 
L 943.13099 629.345455 
L 946.58147 629.345455 
L 946.696486 400.254545 
L 946.811502 629.345455 
L 948.766773 629.345455 
L 948.881789 623.316746 
L 948.996805 629.345455 
L 954.977636 629.345455 
L 955.092652 623.316746 
L 955.207668 629.345455 
L 963.71885 629.345455 
L 963.833866 623.316746 
L 963.948882 629.345455 
L 985.341853 629.345455 
L 985.456869 623.316746 
L 985.571885 629.345455 
L 1031.578275 629.345455 
L 1031.693291 623.316746 
L 1031.808307 629.345455 
L 1035.028754 629.345455 
L 1035.14377 623.316746 
L 1035.603834 623.316746 
L 1035.71885 617.288038 
L 1035.833866 623.316746 
L 1037.329073 623.316746 
L 1037.444089 617.288038 
L 1037.559105 623.316746 
L 1038.479233 623.316746 
L 1038.594249 611.25933 
L 1038.709265 623.316746 
L 1045.72524 623.316746 
L 1045.840256 611.25933 
L 1045.955272 623.316746 
L 1046.760383 623.316746 
L 1046.875399 400.254545 
L 1046.990415 623.316746 
L 1048.255591 623.316746 
L 1048.370607 617.288038 
L 1048.485623 623.316746 
L 1058.376997 623.316746 
L 1058.492013 617.288038 
L 1058.607029 623.316746 
L 1059.872204 623.316746 
L 1059.98722 400.254545 
L 1060.102236 623.316746 
L 1060.217252 623.316746 
L 1060.332268 629.345455 
L 1073.904153 629.345455 
L 1074.019169 418.34067 
L 1074.134185 629.345455 
L 1098.28754 629.345455 
L 1098.402556 599.201914 
L 1098.517572 629.345455 
L 1116.920128 629.345455 
L 1117.035144 400.254545 
L 1117.610224 400.254545 
L 1117.72524 629.345455 
L 1119.565495 629.345455 
L 1119.680511 550.972249 
L 1119.795527 629.345455 
L 1121.865815 629.345455 
L 1121.980831 623.316746 
L 1122.095847 629.345455 
L 1122.785942 629.345455 
L 1122.900958 550.972249 
L 1123.015974 629.345455 
L 1125.086262 629.345455 
L 1125.201278 623.316746 
L 1125.316294 629.345455 
L 1141.41853 629.345455 
L 1141.533546 466.570335 
L 1141.648562 629.345455 
L 1189.72524 629.345455 
L 1189.840256 400.254545 
L 1189.955272 629.345455 
L 1193.750799 629.345455 
L 1193.865815 418.34067 
L 1193.980831 629.345455 
L 1198.466454 629.345455 
L 1198.58147 623.316746 
L 1198.696486 629.345455 
L 1200.651757 629.345455 
L 1200.766773 623.316746 
L 1201.456869 623.316746 
L 1201.571885 629.345455 
L 1224 629.345455 
L 1224.115016 623.316746 
L 1224.230032 629.345455 
L 1230.900958 629.345455 
L 1231.015974 623.316746 
L 1231.13099 629.345455 
L 1232.511182 629.345455 
L 1232.626198 617.288038 
L 1232.741214 629.345455 
L 1233.546326 629.345455 
L 1233.661342 623.316746 
L 1233.776358 629.345455 
L 1243.322684 629.345455 
L 1243.4377 623.316746 
L 1243.552716 629.345455 
L 1249.648562 629.345455 
L 1249.763578 400.254545 
L 1249.878594 629.345455 
L 1267.015974 629.345455 
L 1267.13099 623.316746 
L 1267.246006 629.345455 
L 1285.188498 629.345455 
L 1285.303514 623.316746 
L 1285.41853 629.345455 
L 1286.683706 629.345455 
L 1286.798722 623.316746 
L 1286.913738 629.345455 
L 1288.753994 629.345455 
L 1288.86901 400.254545 
L 1288.984026 629.345455 
L 1289.789137 629.345455 
L 1289.904153 623.316746 
L 1290.019169 629.345455 
L 1293.469649 629.345455 
L 1293.584665 623.316746 
L 1295.884984 623.316746 
L 1295.884984 623.316746 
" clip-path="url(#p19f805066f)" style="fill: none; stroke: #1f77b4; stroke-width: 1.5; stroke-linecap: square"/>
   </g>
   <g id="patch_23">
    <path d="M 180 640.8 
L 180 388.8 
" style="fill: none; stroke: #000000; stroke-width: 0.8; stroke-linejoin: miter; stroke-linecap: square"/>
   </g>
   <g id="patch_24">
    <path d="M 1296 640.8 
L 1296 388.8 
" style="fill: none; stroke: #000000; stroke-width: 0.8; stroke-linejoin: miter; stroke-linecap: square"/>
   </g>
   <g id="patch_25">
    <path d="M 180 640.8 
L 1296 640.8 
" style="fill: none; stroke: #000000; stroke-width: 0.8; stroke-linejoin: miter; stroke-linecap: square"/>
   </g>
   <g id="patch_26">
    <path d="M 180 388.8 
L 1296 388.8 
" style="fill: none; stroke: #000000; stroke-width: 0.8; stroke-linejoin: miter; stroke-linecap: square"/>
   </g>
   <g id="text_34">
    <!-- Delta variants -->
    <g transform="translate(695.766562 382.8) scale(0.12 -0.12)">
     <defs>
      <path id="DejaVuSans-44" d="M 1259 4147 
L 1259 519 
L 2022 519 
Q 2988 519 3436 956 
Q 3884 1394 3884 2338 
Q 3884 3275 3436 3711 
Q 2988 4147 2022 4147 
L 1259 4147 
z
M 628 4666 
L 1925 4666 
Q 3281 4666 3915 4102 
Q 4550 3538 4550 2338 
Q 4550 1131 3912 565 
Q 3275 0 1925 0 
L 628 0 
L 628 4666 
z
" transform="scale(0.015625)"/>
     </defs>
     <use xlink:href="#DejaVuSans-44"/>
     <use xlink:href="#DejaVuSans-65" x="77.001953"/>
     <use xlink:href="#DejaVuSans-6c" x="138.525391"/>
     <use xlink:href="#DejaVuSans-74" x="166.308594"/>
     <use xlink:href="#DejaVuSans-61" x="205.517578"/>
     <use xlink:href="#DejaVuSans-20" x="266.796875"/>
     <use xlink:href="#DejaVuSans-76" x="298.583984"/>
     <use xlink:href="#DejaVuSans-61" x="357.763672"/>
     <use xlink:href="#DejaVuSans-72" x="419.042969"/>
     <use xlink:href="#DejaVuSans-69" x="460.15625"/>
     <use xlink:href="#DejaVuSans-61" x="487.939453"/>
     <use xlink:href="#DejaVuSans-6e" x="549.21875"/>
     <use xlink:href="#DejaVuSans-74" x="612.597656"/>
     <use xlink:href="#DejaVuSans-73" x="651.806641"/>
    </g>
   </g>
   <g id="legend_2">
    <g id="patch_27">
     <path d="M 187 484.86875 
L 344.15625 484.86875 
Q 346.15625 484.86875 346.15625 482.86875 
L 346.15625 395.8 
Q 346.15625 393.8 344.15625 393.8 
L 187 393.8 
Q 185 393.8 185 395.8 
L 185 482.86875 
Q 185 484.86875 187 484.86875 
z
" style="fill: #ffffff; opacity: 0.8; stroke: #cccccc; stroke-linejoin: miter"/>
    </g>
    <g id="patch_28">
     <path d="M 189 405.398438 
L 209 405.398438 
L 209 398.398438 
L 189 398.398438 
z
" style="fill: #ff0000; stroke: #ff0000; stroke-linejoin: miter"/>
    </g>
    <g id="text_35">
     <!-- S -->
     <g transform="translate(217 405.398438) scale(0.1 -0.1)">
      <use xlink:href="#DejaVuSans-53"/>
     </g>
    </g>
    <g id="patch_29">
     <path d="M 189 420.076563 
L 209 420.076563 
L 209 413.076563 
L 189 413.076563 
z
" style="fill: #008000; stroke: #008000; stroke-linejoin: miter"/>
    </g>
    <g id="text_36">
     <!-- E -->
     <g transform="translate(217 420.076563) scale(0.1 -0.1)">
      <use xlink:href="#DejaVuSans-45"/>
     </g>
    </g>
    <g id="patch_30">
     <path d="M 189 434.754687 
L 209 434.754687 
L 209 427.754687 
L 189 427.754687 
z
" style="fill: #0000ff; stroke: #0000ff; stroke-linejoin: miter"/>
    </g>
    <g id="text_37">
     <!-- M -->
     <g transform="translate(217 434.754687) scale(0.1 -0.1)">
      <use xlink:href="#DejaVuSans-4d"/>
     </g>
    </g>
    <g id="patch_31">
     <path d="M 189 449.432813 
L 209 449.432813 
L 209 442.432813 
L 189 442.432813 
z
" style="fill: #800080; stroke: #800080; stroke-linejoin: miter"/>
    </g>
    <g id="text_38">
     <!-- N -->
     <g transform="translate(217 449.432813) scale(0.1 -0.1)">
      <use xlink:href="#DejaVuSans-4e"/>
     </g>
    </g>
    <g id="patch_32">
     <path d="M 189 464.110937 
L 209 464.110937 
L 209 457.110937 
L 189 457.110937 
z
" style="fill: #0000ff; stroke: #0000ff; stroke-linejoin: miter"/>
    </g>
    <g id="text_39">
     <!-- Common mutations sites -->
     <g transform="translate(217 464.110937) scale(0.1 -0.1)">
      <use xlink:href="#DejaVuSans-43"/>
      <use xlink:href="#DejaVuSans-6f" x="69.824219"/>
      <use xlink:href="#DejaVuSans-6d" x="131.005859"/>
      <use xlink:href="#DejaVuSans-6d" x="228.417969"/>
      <use xlink:href="#DejaVuSans-6f" x="325.830078"/>
      <use xlink:href="#DejaVuSans-6e" x="387.011719"/>
      <use xlink:href="#DejaVuSans-20" x="450.390625"/>
      <use xlink:href="#DejaVuSans-6d" x="482.177734"/>
      <use xlink:href="#DejaVuSans-75" x="579.589844"/>
      <use xlink:href="#DejaVuSans-74" x="642.96875"/>
      <use xlink:href="#DejaVuSans-61" x="682.177734"/>
      <use xlink:href="#DejaVuSans-74" x="743.457031"/>
      <use xlink:href="#DejaVuSans-69" x="782.666016"/>
      <use xlink:href="#DejaVuSans-6f" x="810.449219"/>
      <use xlink:href="#DejaVuSans-6e" x="871.630859"/>
      <use xlink:href="#DejaVuSans-73" x="935.009766"/>
      <use xlink:href="#DejaVuSans-20" x="987.109375"/>
      <use xlink:href="#DejaVuSans-73" x="1018.896484"/>
      <use xlink:href="#DejaVuSans-69" x="1070.996094"/>
      <use xlink:href="#DejaVuSans-74" x="1098.779297"/>
      <use xlink:href="#DejaVuSans-65" x="1137.988281"/>
      <use xlink:href="#DejaVuSans-73" x="1199.511719"/>
     </g>
    </g>
    <g id="patch_33">
     <path d="M 189 478.789062 
L 209 478.789062 
L 209 471.789062 
L 189 471.789062 
z
" style="stroke: #000000; stroke-linejoin: miter"/>
    </g>
    <g id="text_40">
     <!-- Same change site -->
     <g transform="translate(217 478.789062) scale(0.1 -0.1)">
      <use xlink:href="#DejaVuSans-53"/>
      <use xlink:href="#DejaVuSans-61" x="63.476562"/>
      <use xlink:href="#DejaVuSans-6d" x="124.755859"/>
      <use xlink:href="#DejaVuSans-65" x="222.167969"/>
      <use xlink:href="#DejaVuSans-20" x="283.691406"/>
      <use xlink:href="#DejaVuSans-63" x="315.478516"/>
      <use xlink:href="#DejaVuSans-68" x="370.458984"/>
      <use xlink:href="#DejaVuSans-61" x="433.837891"/>
      <use xlink:href="#DejaVuSans-6e" x="495.117188"/>
      <use xlink:href="#DejaVuSans-67" x="558.496094"/>
      <use xlink:href="#DejaVuSans-65" x="621.972656"/>
      <use xlink:href="#DejaVuSans-20" x="683.496094"/>
      <use xlink:href="#DejaVuSans-73" x="715.283203"/>
      <use xlink:href="#DejaVuSans-69" x="767.382812"/>
      <use xlink:href="#DejaVuSans-74" x="795.166016"/>
      <use xlink:href="#DejaVuSans-65" x="834.375"/>
     </g>
    </g>
   </g>
  </g>
 </g>
 <defs>
  <clipPath id="p55509bbc6e">
   <rect x="180" y="86.4" width="1116" height="252"/>
  </clipPath>
  <clipPath id="p19f805066f">
   <rect x="180" y="388.8" width="1116" height="252"/>
  </clipPath>
 </defs>
</svg>
